<svg version="1.1" id="Layer_1" xmlns="http://www.w3.org/2000/svg" xmlns:xlink="http://www.w3.org/1999/xlink" x="0px" y="0px"
	 viewBox="0 0 500 500" style="enable-background:new 0 0 500 500;" xml:space="preserve">

<rect style="fill:url(#SVGID_1_);" width="500" height="500"/>
<g>
	
	<path style="fill:#E9E1F9;" d="M358.71,474.103l-0.061-0.536h-0.025c-0.237,0.334-0.695,0.633-1.303,0.633
		c-0.862,0-1.301-0.607-1.301-1.223c0-1.028,0.916-1.592,2.561-1.583v-0.087c0-0.353-0.097-0.986-0.969-0.986
		c-0.397,0-0.81,0.123-1.109,0.317l-0.174-0.511c0.352-0.228,0.861-0.379,1.396-0.379c1.301,0,1.62,0.89,1.62,1.742v1.591
		c0,0.371,0.017,0.73,0.068,1.021H358.71z M358.596,471.93c-0.843-0.016-1.802,0.132-1.802,0.959c0,0.502,0.336,0.739,0.729,0.739
		c0.554,0,0.907-0.353,1.031-0.713c0.026-0.079,0.041-0.167,0.041-0.246V471.93z"/>
	
</g>
<path style="opacity:.1;fill:purple;" d="M435.719,223.722c0,102.566-83.148,185.717-185.719,185.717
	S64.281,326.288,64.281,223.722C64.281,121.15,147.43,38,250,38S435.719,121.15,435.719,223.722z"/>
<g>
	<g>
		<rect x="288.856" y="147.518" style="fill:#FECC2F;" width="114.493" height="67.319"/>
		<polygon style="fill:#FCB237;" points="288.856,147.518 346.11,181.181 403.35,147.518 		"/>
	</g>
	<g>
		<g>
			
				<rect x="114.439" y="128.503" transform="matrix(0.6355 -0.7721 0.7721 0.6355 -67.7125 142.8451)" style="fill:#F54945;" width="5.977" height="29.264"/>
			
				<rect x="102.796" y="140.146" transform="matrix(0.7286 -0.685 0.685 0.7286 -66.1712 119.289)" style="fill:#F54945;" width="29.265" height="5.98"/>
		</g>
	</g>
	<g>
		<g>
			<path style="fill:#F54945;" d="M353.887,111.402c0,8.774-7.11,15.891-15.891,15.891h-102.04c-8.779,0-15.894-7.116-15.894-15.891
				v-3.117c0-8.781,7.114-15.897,15.894-15.897h102.04c8.78,0,15.891,7.116,15.891,15.897V111.402z"/>
		</g>
		<g>
			<path style="fill:#F0F8FF;" d="M243.524,102.862c0.924-0.186,2.796-0.324,4.552-0.324c2.146,0,3.462,0.206,4.595,0.878
				c1.084,0.577,1.87,1.639,1.87,3.043c0,1.391-0.81,2.682-2.565,3.33v0.045c1.779,0.487,3.097,1.829,3.097,3.835
				c0,1.41-0.644,2.518-1.616,3.306c-1.13,0.898-3.021,1.405-6.12,1.405c-1.73,0-3.024-0.119-3.811-0.229V102.862z M247.014,108.818
				h1.153c1.846,0,2.842-0.761,2.842-1.919c0-1.176-0.898-1.798-2.492-1.798c-0.763,0-1.202,0.049-1.503,0.094V108.818z
				 M247.014,115.724c0.346,0.048,0.763,0.048,1.361,0.048c1.595,0,3.002-0.604,3.002-2.241c0-1.571-1.407-2.193-3.165-2.193h-1.198
				V115.724z"/>
			<path style="fill:#F0F8FF;" d="M261.018,114.222l-1.112,3.995h-3.644l4.756-15.564h4.618l4.826,15.564h-3.785l-1.203-3.995
				H261.018z M264.964,111.588l-0.968-3.299c-0.275-0.922-0.554-2.08-0.785-3.004h-0.046c-0.23,0.924-0.465,2.104-0.719,3.004
				l-0.925,3.299H264.964z"/>
			<path style="fill:#F0F8FF;" d="M272.547,118.217v-15.564h4.108l3.234,5.703c0.925,1.643,1.853,3.582,2.541,5.334h0.069
				c-0.23-2.056-0.299-4.154-0.299-6.488v-4.549h3.231v15.564h-3.69l-3.327-6.004c-0.923-1.66-1.94-3.671-2.704-5.496l-0.065,0.024
				c0.091,2.054,0.135,4.247,0.135,6.789v4.686H272.547z"/>
			<path style="fill:#F0F8FF;" d="M288.493,118.217v-15.564h4.113l3.229,5.703c0.926,1.643,1.854,3.582,2.541,5.334h0.067
				c-0.232-2.056-0.298-4.154-0.298-6.488v-4.549h3.232v15.564h-3.688l-3.33-6.004c-0.923-1.66-1.94-3.671-2.703-5.496l-0.066,0.024
				c0.088,2.054,0.133,4.247,0.133,6.789v4.686H288.493z"/>
			<path style="fill:#F0F8FF;" d="M313.697,111.635h-5.73v3.694h6.398v2.888h-9.931v-15.564h9.607v2.888h-6.075v3.232h5.73V111.635z
				"/>
			<path style="fill:#F0F8FF;" d="M316.77,102.862c1.297-0.209,2.984-0.324,4.762-0.324c2.955,0,4.868,0.532,6.374,1.663
				c1.616,1.199,2.632,3.12,2.632,5.866c0,2.98-1.084,5.034-2.587,6.304c-1.639,1.362-4.134,2.009-7.18,2.009
				c-1.825,0-3.119-0.119-4.001-0.229V102.862z M320.308,115.564c0.3,0.072,0.785,0.072,1.225,0.072
				c3.185,0.021,5.264-1.736,5.264-5.455c0.021-3.232-1.868-4.939-4.894-4.939c-0.783,0-1.295,0.071-1.595,0.137V115.564z"/>
		</g>
	</g>
	<g>
		<g>
			<path style="fill:#EFC18F;" d="M335.061,226.585c0,0-9.104-2.154-7.108-0.027c2.007,2.128,3.799,3.833,8.242,2.56
				L335.061,226.585z"/>
			<path style="fill:#1AB8C2;" d="M364.712,199.576c1.237-0.986,5.553-2.426,6.204,1.055c1.028,5.525-6.968,18.339-10.013,21.128
				c-3.045,2.786-25.223,7.698-25.223,7.698s-1.996-1.339-0.761-3.352l20.008-11.91
				C354.928,214.195,360.424,202.975,364.712,199.576z"/>
		</g>
		<polygon style="fill:#EFC18F;" points="402.701,317.432 404.851,321.23 400.156,321.897 397.675,316.935 		"/>
		<path style="fill:#5BB0FF;" d="M399.259,320.658c0,0,2.954,1.276,4.686-1.2c0,0,6.215,4.977,1.417,7.378
			c-4.795,2.394-14.6,4.318-16.654,2.838C385.738,327.543,393.35,323.256,399.259,320.658z"/>
		<polygon style="fill:#EFC18F;" points="365.65,319.416 365.906,323.601 361.24,322.755 361.238,317.384 		"/>
		<path style="fill:#223A7A;" d="M389.073,242.248c0,0,2.689,9.605-10.07,18.358l-15.44,22.748c0,0,6.075,23.911,3.352,34.721
			c-1.045,4.142-6.807,2.46-7.461,0.874c-4.609-11.155-13.417-33.517-8.833-46.214c3.913-10.837,10.618-31.086,10.618-31.086
			L389.073,242.248z"/>
		<path style="fill:#5BB0FF;" d="M360.989,321.327c0,0,2.151,2.102,4.882,0.352c0,0,3.476,6.542-2.067,7.266
			c-5.537,0.728-15.5-0.556-16.72-2.563C345.313,323.479,354.325,321.885,360.989,321.327z"/>
		<path style="fill:#2C4481;" d="M388.987,238.693c0,0,6.888,8.052-0.905,20.136l-3.865,25.875c0,0,16.599,20.243,19.037,31.097
			c0.93,4.154-5.168,4.396-6.507,3.135c-9.385-8.884-27.796-26.833-29.373-40.021c-1.345-11.25,5.494-35.101,5.494-35.101
			L388.987,238.693z"/>
		<path style="fill:#48D7F6;" d="M381.778,199.997c5.031,4.197,9.053,14.021,9.89,45.726c0.188,6.971-31.727,5.512-31.589-1.467
			c0.349-18.556-6.6-31.158,2.836-43.203C362.915,201.053,371.803,191.677,381.778,199.997z"/>
		<path style="fill:#F28E66;" d="M373.832,188.091c0,0-1.941,5.183,0,8.499c1.241,2.111-8.078,9.207-7.879,6.361
			c0.257-3.661,2.002-5.912,0.012-10.035L373.832,188.091z"/>
		<path style="fill:#FFAA83;" d="M365.686,179.299c-2.952,3.075-5.661,16.11-2.255,18.781c1.483,1.16,7.263-0.524,10.678-6.355
			c1.403-2.395,3.07-6.836,0.493-11.104C373.445,178.692,369.125,175.72,365.686,179.299z"/>
		<path style="fill:#9B4D34;" d="M360.635,180.803c0,0,1.583,2.213,6.477,2.714c4.882,0.503,5.706,0.137,5.266,1.322
			c-1.28,3.467,2.358,3.454,0.786,7.601c-1.569,4.142,1.557,0.425,1.99-0.203c0.43-0.634,4.452-5.783,1.392-11.53
			C373.482,174.961,364.762,177.328,360.635,180.803z"/>
		<g>
			<polygon style="fill:#A9E8EF;" points="369.693,242.017 353.088,242.11 352.143,239.026 369.674,239.136 			"/>
			<polygon style="fill:#8EDADD;" points="353.088,242.11 329.85,237.903 329.084,218.919 351.782,223.636 			"/>
		</g>
		<g>
			<path style="fill:#EFC18F;" d="M362.956,241.47c0,0-9.141,1.988-6.419,3.044c2.732,1.045,5.081,1.812,8.541-1.256L362.956,241.47
				z"/>
			<path style="fill:#1AB8C2;" d="M378.007,204.289c0.688-1.423,3.952-4.592,6.048-1.736c3.318,4.534,1.651,19.552,0.117,23.379
				c-1.541,3.833-19.412,17.852-19.412,17.852s-2.38-0.339-2.142-2.691l12.89-19.393
				C375.508,221.699,375.613,209.21,378.007,204.289z"/>
		</g>
	</g>
	<g>
		<rect x="100.229" y="172.523" style="fill:#E3FBFC;" width="171.939" height="119.351"/>
		
			<linearGradient id="SVGID_00000043445521226348864170000018343868284452661919_" gradientUnits="userSpaceOnUse" x1="100.2295" y1="180.1492" x2="272.168" y2="180.1492">
			<stop  offset="0" style="stop-color:#187ADD"/>
			<stop  offset="1" style="stop-color:#1875D3"/>
		</linearGradient>
		
			<rect x="100.229" y="172.523" style="opacity:0.6;fill:url(#SVGID_00000043445521226348864170000018343868284452661919_);" width="171.939" height="15.252"/>
		<path style="fill:#A9E8EF;" d="M114.133,180.701c0,1.955-1.476,3.537-3.298,3.537c-1.822,0-3.295-1.581-3.295-3.537
			c0-1.947,1.473-3.532,3.295-3.532C112.657,177.169,114.133,178.753,114.133,180.701z"/>
		<path style="fill:#A9E8EF;" d="M124.026,180.701c0,1.955-1.481,3.537-3.304,3.537c-1.814,0-3.295-1.581-3.295-3.537
			c0-1.947,1.48-3.532,3.295-3.532C122.545,177.169,124.026,178.753,124.026,180.701z"/>
		<path style="fill:#A9E8EF;" d="M133.912,180.701c0,1.955-1.479,3.537-3.302,3.537c-1.814,0-3.289-1.581-3.289-3.537
			c0-1.947,1.475-3.532,3.289-3.532C132.433,177.169,133.912,178.753,133.912,180.701z"/>
		<rect x="107.54" y="198.236" style="fill:#78CACE;" width="155.852" height="26.978"/>
		<rect x="107.54" y="229.824" style="fill:#78CACE;" width="74.541" height="23.89"/>
		<rect x="107.54" y="257.9" style="fill:#78CACE;" width="74.541" height="23.893"/>
		<rect x="194.362" y="229.824" style="fill:#78CACE;" width="69.029" height="51.969"/>
	</g>
	<g>
		<rect x="150.481" y="138.559" style="fill:#E3FBFC;" width="171.938" height="119.35"/>
		
			<linearGradient id="SVGID_00000013171560128314042300000007394435622781627804_" gradientUnits="userSpaceOnUse" x1="150.4814" y1="146.1861" x2="322.4199" y2="146.1861">
			<stop  offset="0" style="stop-color:#187ADD"/>
			<stop  offset="1" style="stop-color:#1875D3"/>
		</linearGradient>
		
			<rect x="150.481" y="138.559" style="opacity:0.6;fill:url(#SVGID_00000013171560128314042300000007394435622781627804_);" width="171.938" height="15.255"/>
		<path style="fill:#A9E8EF;" d="M164.385,146.737c0,1.955-1.476,3.538-3.297,3.538c-1.825,0-3.298-1.583-3.298-3.538
			c0-1.947,1.473-3.533,3.298-3.533C162.909,143.204,164.385,144.79,164.385,146.737z"/>
		<path style="fill:#A9E8EF;" d="M174.276,146.737c0,1.955-1.48,3.538-3.304,3.538c-1.813,0-3.293-1.583-3.293-3.538
			c0-1.947,1.48-3.533,3.293-3.533C172.797,143.204,174.276,144.79,174.276,146.737z"/>
		<path style="fill:#A9E8EF;" d="M184.163,146.737c0,1.955-1.479,3.538-3.303,3.538c-1.813,0-3.287-1.583-3.287-3.538
			c0-1.947,1.475-3.533,3.287-3.533C182.685,143.204,184.163,144.79,184.163,146.737z"/>
		<rect x="157.79" y="164.274" style="fill:#78CACE;" width="155.854" height="26.975"/>
		<rect x="157.79" y="195.859" style="fill:#78CACE;" width="74.543" height="23.893"/>
		<rect x="157.79" y="223.937" style="fill:#78CACE;" width="74.543" height="23.895"/>
		<rect x="244.611" y="195.859" style="fill:#78CACE;" width="69.032" height="51.973"/>
	</g>
	<path style="opacity:0.1;" d="M422.303,330.679c0,6.466-77.136,11.707-172.299,11.707c-95.161,0-172.307-5.241-172.307-11.707
		c0-6.464,77.145-11.709,172.307-11.709C345.167,318.97,422.303,324.215,422.303,330.679z"/>
	<path style="fill:#FECC2F;" d="M317.368,312.676c0,9.681-7.847,17.529-17.527,17.529h-86.061c-9.679,0-17.523-7.849-17.523-17.529
		v-65.247c0-9.681,7.844-17.527,17.523-17.527h86.061c9.681,0,17.527,7.846,17.527,17.527V312.676z"/>
	<path style="fill:#FECC2F;" d="M280.16,174.317h-46.491c-9.679,0-17.527,7.846-17.527,17.523v70.69
		c0,9.677,7.849,17.523,17.527,17.523h46.491c9.675,0,17.521-7.847,17.521-17.523v-70.69
		C297.681,182.163,289.835,174.317,280.16,174.317z M287.91,253.017c0,7.38-5.985,13.369-13.365,13.369h-35.466
		c-7.378,0-13.364-5.989-13.364-13.369v-53.921c0-7.386,5.986-13.369,13.364-13.369h35.466c7.38,0,13.365,5.982,13.365,13.369
		V253.017z"/>
	<path style="fill:#2D1D1F;" d="M263.8,301.803c0,4.357-3.529,7.886-7.885,7.886l0,0c-4.358,0-7.889-3.529-7.889-7.886v-26.983
		c0-4.355,3.53-7.886,7.889-7.886l0,0c4.356,0,7.885,3.53,7.885,7.886V301.803z"/>
	<path style="fill:#2D1D1F;" d="M267.742,273.282c0,6.283-5.094,11.38-11.377,11.38h-0.899c-6.288,0-11.382-5.097-11.382-11.38l0,0
		c0-6.285,5.094-11.38,11.382-11.38h0.899C262.648,261.902,267.742,266.997,267.742,273.282L267.742,273.282z"/>
	<g>
		<path style="fill:#F54945;" d="M334.461,308.254c0,14.596-11.83,26.427-26.429,26.427c-14.594,0-26.426-11.831-26.426-26.427
			c0-14.597,11.832-26.43,26.426-26.43C322.631,281.824,334.461,293.657,334.461,308.254z"/>
		<path style="fill:#E3FBFC;" d="M331.031,308.254c0,12.699-10.295,22.993-22.999,22.993c-12.697,0-22.994-10.294-22.994-22.993
			c0-12.703,10.297-23.001,22.994-23.001C320.736,285.253,331.031,295.551,331.031,308.254z"/>
		<g>
			<g>
				
					<rect x="304.465" y="290.782" transform="matrix(0.6356 -0.772 0.772 0.6356 -125.7284 350.1347)" style="fill:#F54945;" width="7.137" height="34.938"/>
				
					<rect x="290.566" y="304.684" transform="matrix(0.7287 -0.6849 0.6849 0.7287 -127.5333 294.6103)" style="fill:#F54945;" width="34.937" height="7.139"/>
			</g>
		</g>
	</g>
	<g>
		<g>
			<path style="fill:#EFC18F;" d="M147.373,239.05c0,0,7.418,5.754,4.493,5.529c-2.925-0.227-5.386-0.548-7.184-4.823
				L147.373,239.05z"/>
			<path style="fill:#1AB8C2;" d="M150.285,195.014c-0.006-1.583-0.458-4.168-3.587-2.481c-4.965,2.68-11.579,19.151-11.84,23.285
				c-0.262,4.134,9.876,24.553,9.876,24.553s2.307,0.718,3.103-1.513l-6.823-22.952
				C141.014,215.907,150.328,200.501,150.285,195.014z"/>
		</g>
		<polygon style="fill:#FFAA83;" points="144.888,317.318 145.225,321.836 140.631,321.002 140.502,315.203 		"/>
		<polygon style="fill:#FFAA83;" points="172.566,322.388 172.905,326.903 168.313,326.065 168.181,320.266 		"/>
		<path style="fill:#5BB0FF;" d="M172.738,324.563c0,0-1.635,2.616-4.429,0.67c0,0-3.002,7.959,2.476,8.542
			c5.477,0.576,15.168-1.449,16.256-3.901C188.596,326.339,179.31,324.897,172.738,324.563z"/>
		<path style="fill:#5BB0FF;" d="M145.116,320.387c0,0-2.643,1.449-4.502-0.199c0,0-5.756,6.29-0.735,8.574
			c5.013,2.282,14.849,3.429,16.651,1.445C159.126,327.348,151.251,322.791,145.116,320.387z"/>
		<path style="fill:#EFC18F;" d="M151.47,180.353c0,0,2.697,5.921,0.688,9.967c-1.272,2.571,10.219,10.133,9.76,6.817
			c-0.601-4.275-2.824-6.773-0.827-11.757L151.47,180.353z"/>
		<path style="fill:#FFAA83;" d="M160.32,169.392c3.71,3.365,7.077,14.85,3.306,18.252c-1.643,1.482-7.697,3.559-12.179-3.005
			c-1.841-2.7-4.148-7.764-1.475-12.98C151.177,169.304,155.994,165.469,160.32,169.392z"/>
		<path style="fill:#9B4D34;" d="M166.36,170.741c0,0-1.675,2.729-7.367,3.708c-5.695,0.982-4.096,2.635-3.487,3.987
			c1.78,3.964-2.173,2.528,0,7.257c2.18,4.733-4.683,0.331-5.241-0.372c-0.556-0.706-5.69-6.422-2.561-13.408
			C150.829,164.931,161.234,167.006,166.36,170.741z"/>
		<path style="fill:#223A7A;" d="M161.799,227.481l-5.606,46.256c0,0-3.252,33.659-8.018,44.339
			c-1.035,2.334-8.925,2.202-9.813-0.475c-4.293-13.011,3.805-54.03,3.805-54.03s-1.482-15.515-1.149-20.684
			c0.246-3.909,2.829-15.406,2.829-15.406H161.799z"/>
		<path style="fill:#2C4481;" d="M151.47,236.502c-7.66,9.249,8.951,47.216,8.951,47.216s-1.169,29.174,4.904,37.683
			c1.368,1.921,9.512,2.221,10.099,0c3.291-12.458,0-44.232,0-44.232l-1.299-41.415l-13.85,0.749
			C160.275,236.502,152.879,234.812,151.47,236.502z"/>
		<path style="fill:#48D7F6;" d="M166.36,194.894c5.275,4.39,7.051,13.189,7.928,46.385c0.192,7.294-33.217,5.77-33.08-1.539
			c0.372-19.423-4.881-25.67,1.364-42.958C144.27,192.084,155.922,186.187,166.36,194.894z"/>
		<g>
			<path style="fill:#EFC18F;" d="M203.64,187.187c0,0,4.245-9.345,4.746-6.179c0.499,3.166,0.783,5.868-3.32,8.875L203.64,187.187z
				"/>
			<path style="fill:#1AB8C2;" d="M160.275,194.777c-1.689,0.413-5.848,3.185-3.258,6.091c4.103,4.606,20.823,7.286,25.289,6.523
				c4.471-0.769,23.405-17.728,23.405-17.728s0.183-2.634-2.395-2.921l-23.193,10.391
				C180.124,197.134,166.102,193.35,160.275,194.777z"/>
		</g>
	</g>
</g>
</svg>
